<?xml version="1.0" standalone="no"?>
<!DOCTYPE svg PUBLIC "-//W3C//DTD SVG 20010904//EN"
 "http://www.w3.org/TR/2001/REC-SVG-20010904/DTD/svg10.dtd">
<svg version="1.0" xmlns="http://www.w3.org/2000/svg"
 width="1052.000000pt" height="1052.000000pt" viewBox="0 0 1052.000000 1052.000000"
 preserveAspectRatio="xMidYMid meet">
<metadata>
Created by potrace 1.14, written by Peter Selinger 2001-2017
</metadata>
<g transform="translate(0.000000,1052.000000) scale(0.100000,-0.100000)"
fill="#000000" stroke="none">
<path d="M7808 5739 c-583 -56 -1029 -382 -1192 -869 -51 -152 -67 -259 -67
-440 1 -535 199 -896 657 -1202 146 -97 335 -193 649 -328 578 -248 716 -336
799 -510 29 -62 31 -71 31 -185 0 -120 0 -122 -38 -197 -64 -131 -187 -219
-372 -270 -67 -18 -108 -22 -255 -22 -152 0 -187 3 -265 23 -108 28 -254 94
-339 155 -84 60 -229 214 -300 319 -33 48 -63 87 -68 87 -7 0 -780 -443 -797
-456 -7 -6 89 -165 152 -254 80 -112 278 -308 397 -392 112 -80 307 -182 440
-231 281 -104 659 -153 985 -127 812 63 1333 474 1440 1135 19 118 19 360 -1
492 -65 441 -289 746 -749 1022 -154 93 -335 181 -660 321 -507 218 -642 310
-705 477 -27 71 -36 191 -21 262 34 160 160 284 327 321 70 16 230 14 309 -5
153 -35 298 -147 405 -313 38 -59 58 -81 69 -77 16 6 730 462 745 476 24 22
-161 276 -297 406 -244 233 -527 352 -911 383 -145 11 -241 11 -368 -1z"/>
<path d="M4730 4008 c0 -1030 -4 -1726 -10 -1795 -23 -258 -106 -394 -283
-462 -75 -28 -278 -41 -366 -22 -170 36 -302 150 -437 378 -38 63 -73 112 -79
109 -5 -2 -185 -110 -400 -240 -287 -174 -389 -241 -387 -253 7 -34 108 -200
178 -294 178 -235 426 -413 711 -508 411 -136 959 -112 1330 59 205 95 384
251 501 435 78 123 152 313 186 475 40 195 39 183 43 2018 l4 1782 -496 0
-495 0 0 -1682z"/>
</g>
</svg>
